<svg xmlns="http://www.w3.org/2000/svg" viewBox="0 0 390 844" fill="none">
  <defs>
    <linearGradient id="mbg" x1="0" y1="0" x2="0" y2="844" gradientUnits="userSpaceOnUse">
      <stop stop-color="#10141A"/>
      <stop offset="1" stop-color="#171C24"/>
    </linearGradient>
  </defs>
  <rect width="390" height="844" fill="url(#mbg)"/>
  <text x="24" y="56" fill="#9AA7B8" font-family="system-ui,sans-serif" font-size="13" font-weight="600">MERIDIAN</text>
  <text x="24" y="108" fill="#F2F5F8" font-family="system-ui,sans-serif" font-size="36" font-weight="700">North Shore</text>
  <text x="24" y="140" fill="#9AA7B8" font-family="system-ui,sans-serif" font-size="14">Weekend itinerary · 3 stops</text>

  <rect x="24" y="178" width="342" height="220" rx="28" fill="#243044"/>
  <circle cx="120" cy="270" r="48" fill="#3A5168"/>
  <circle cx="200" cy="250" r="64" fill="#4A6680" fill-opacity="0.7"/>
  <circle cx="270" cy="290" r="40" fill="#2E4258"/>
  <text x="48" y="360" fill="#F2F5F8" font-family="system-ui,sans-serif" font-size="18" font-weight="600">Coastal loop</text>
  <text x="48" y="384" fill="#9AA7B8" font-family="system-ui,sans-serif" font-size="13">12.4 km · Moderate</text>

  <rect x="24" y="430" width="342" height="96" rx="22" fill="#1C232E"/>
  <text x="48" y="470" fill="#F2F5F8" font-family="system-ui,sans-serif" font-size="16" font-weight="600">1 · Harbor overlook</text>
  <text x="48" y="496" fill="#9AA7B8" font-family="system-ui,sans-serif" font-size="13">Arrive 09:15 · 40 min</text>

  <rect x="24" y="542" width="342" height="96" rx="22" fill="#1C232E"/>
  <text x="48" y="582" fill="#F2F5F8" font-family="system-ui,sans-serif" font-size="16" font-weight="600">2 · Cedar trail</text>
  <text x="48" y="608" fill="#9AA7B8" font-family="system-ui,sans-serif" font-size="13">Arrive 10:20 · 1h 15m</text>

  <rect x="24" y="654" width="342" height="96" rx="22" fill="#1C232E"/>
  <text x="48" y="694" fill="#F2F5F8" font-family="system-ui,sans-serif" font-size="16" font-weight="600">3 · Tide pool bay</text>
  <text x="48" y="720" fill="#9AA7B8" font-family="system-ui,sans-serif" font-size="13">Arrive 12:00 · Sunset stay</text>

  <rect x="48" y="790" width="294" height="4" rx="2" fill="#2A3340"/>
</svg>
